<svg width="110" height="110" viewBox="0 0 110 110" fill="none" xmlns="http://www.w3.org/2000/svg">
<path d="M41.0063 31.8938L59.2313 31.8938" stroke="#222222" stroke-width="4.55625" stroke-linecap="round"/>
<path d="M41.0063 68.3438L54.6751 68.3438" stroke="#222222" stroke-width="4.55625" stroke-linecap="round"/>
<path d="M41.0063 50.1188L68.3438 50.1188" stroke="#222222" stroke-width="4.55625" stroke-linecap="round"/>
<path d="M86.5688 50.1188V41.0063C86.5688 28.1193 86.5688 21.6757 82.5653 17.6723C78.5618 13.6688 72.1183 13.6688 59.2312 13.6688H50.1188C37.2317 13.6688 30.7882 13.6688 26.7847 17.6723C22.7812 21.6757 22.7812 28.1193 22.7812 41.0063V68.3438C22.7812 81.2308 22.7812 87.6743 26.7847 91.6778C30.7882 95.6813 37.2317 95.6813 50.1188 95.6813H54.675" stroke="#222222" stroke-width="4.55625" stroke-linecap="round"/>
<circle cx="79.7344" cy="79.7344" r="11.3906" stroke="#222222" stroke-width="4.55625" stroke-linecap="round"/>
<path d="M95.6811 95.6813L88.8467 88.8469" stroke="#222222" stroke-width="4.55625" stroke-linecap="round"/>
</svg>
