<svg width="194" height="70" viewBox="0 0 194 70" fill="none" xmlns="http://www.w3.org/2000/svg">
<g clip-path="url(#clip0_2719_102)">
<path d="M154.498 39.8846C154.498 36.9102 154.956 34.2793 155.871 31.9914C156.824 29.7035 158.102 27.7968 159.703 26.2717C161.343 24.7083 163.25 23.5262 165.423 22.7254C167.635 21.9246 170.018 21.5242 172.573 21.5242C175.127 21.5242 177.492 21.9246 179.665 22.7254C181.877 23.5262 183.802 24.7083 185.442 26.2717C187.082 27.7968 188.359 29.7035 189.274 31.9914C190.227 34.2793 190.704 36.9102 190.704 39.8846C190.704 42.8588 190.246 45.509 189.332 47.8351C188.416 50.1227 187.139 52.0484 185.499 53.6119C183.898 55.1372 181.991 56.3002 179.779 57.1008C177.568 57.9016 175.166 58.302 172.573 58.302C169.98 58.302 167.577 57.9016 165.366 57.1008C163.154 56.262 161.248 55.0608 159.646 53.4975C158.045 51.9341 156.786 50.0084 155.871 47.7205C154.956 45.4326 154.498 42.8206 154.498 39.8846ZM164.794 39.8846C164.794 43.3546 165.499 45.9476 166.91 47.6633C168.321 49.3793 170.208 50.2373 172.573 50.2373C174.975 50.2373 176.881 49.3793 178.292 47.6633C179.703 45.9476 180.409 43.3546 180.409 39.8846C180.409 36.4527 179.703 33.8789 178.292 32.1629C176.92 30.4469 175.032 29.5892 172.63 29.5892C170.266 29.5892 168.359 30.4469 166.91 32.1629C165.499 33.8407 164.794 36.4147 164.794 39.8846Z" fill="#FADE3F"/>
<path d="M190.704 39.8846C190.704 36.9105 190.228 34.2793 189.274 31.9914C188.359 29.7035 187.082 27.7963 185.443 26.271C183.803 24.7078 181.876 23.5257 179.664 22.7252C177.491 21.9246 175.127 21.5239 172.573 21.5239C170.018 21.5239 167.634 21.9243 165.423 22.7252C163.25 23.5257 161.343 24.708 159.704 26.271L159.406 26.5627C157.943 28.0373 156.764 29.8469 155.871 31.9914L155.705 32.4246C154.9 34.6095 154.499 37.0965 154.499 39.8846L154.521 40.9706C154.621 43.4684 155.07 45.7184 155.871 47.7202C156.786 50.0079 158.045 51.9336 159.646 53.4968C161.248 55.0603 163.155 56.2618 165.367 57.1005C167.578 57.9014 169.98 58.3018 172.573 58.3018C174.841 58.3018 176.964 57.9953 178.941 57.3822L179.78 57.1005C181.853 56.35 183.659 55.2813 185.196 53.894L185.499 53.6124C187.139 52.0491 188.416 50.1222 189.331 47.8343C190.131 45.7992 190.582 43.5162 190.682 40.9848L190.704 39.8846ZM176.712 39.8846C176.712 36.8661 176.077 35.2891 175.437 34.5109L175.421 34.4907L175.407 34.4717C174.807 33.7222 174.029 33.285 172.63 33.285C171.293 33.285 170.443 33.7086 169.738 34.5398L169.74 34.5412C169.135 35.2608 168.489 36.8065 168.489 39.8846C168.49 42.9534 169.131 44.544 169.766 45.3162C170.424 46.1171 171.233 46.5406 172.573 46.5406V50.2368C170.356 50.2368 168.559 49.4828 167.18 47.9743L166.91 47.664C165.587 46.0552 164.885 43.6749 164.802 40.5243L164.793 39.8846C164.793 36.4149 165.499 33.8409 166.91 32.1631C168.359 30.4474 170.266 29.5889 172.63 29.5889L173.075 29.599C175.267 29.6998 177.006 30.5548 178.293 32.1631C179.703 33.8791 180.408 36.4531 180.408 39.8846L180.401 40.5243C180.318 43.6749 179.616 46.0552 178.293 47.664L178.021 47.9743C176.641 49.4825 174.825 50.2368 172.573 50.2368V46.5406C173.972 46.5406 174.791 46.1018 175.437 45.3162C176.072 44.544 176.712 42.9534 176.712 39.8846ZM194.4 39.8846C194.4 43.236 193.885 46.3581 192.771 49.1886L192.767 49.1972L192.763 49.2073C191.668 51.9437 190.106 54.326 188.05 56.2864L188.049 56.2879C186.054 58.1879 183.699 59.6122 181.037 60.5759C178.383 61.5369 175.551 61.9979 172.573 61.9979C169.594 61.9979 166.762 61.5369 164.107 60.5759L164.082 60.5673L164.055 60.5572C161.396 59.5486 159.05 58.08 157.064 56.142C155.058 54.1835 153.527 51.8111 152.44 49.0932C151.32 46.294 150.803 43.2028 150.803 39.8846C150.803 36.5352 151.318 33.423 152.44 30.6184L152.449 30.5938L152.459 30.5694C153.585 27.8653 155.139 25.515 157.154 23.5957C159.167 21.6764 161.509 20.2283 164.145 19.2569L164.165 19.2498C166.813 18.291 169.626 17.8278 172.573 17.8278C175.511 17.8278 178.305 18.2888 180.922 19.2498H180.923C183.583 20.2128 185.941 21.6511 187.958 23.5654H187.959C190.024 25.4867 191.59 27.847 192.686 30.5694L192.898 31.1021C193.925 33.7808 194.4 36.7284 194.4 39.8846Z" fill="#0D2746"/>
<path d="M92.0069 45.9463V56.9283C91.5875 57.0427 90.92 57.157 90.0048 57.2713C89.1279 57.3859 88.2509 57.4431 87.3739 57.4431C86.497 57.4431 85.7151 57.3667 85.0289 57.2142C84.3805 57.0998 83.8276 56.8709 83.37 56.5279C82.9506 56.1847 82.6266 55.7081 82.3977 55.098C82.169 54.4879 82.0547 53.687 82.0547 52.6957V25.7558C82.0547 24.9549 82.2644 24.3448 82.6838 23.9254C83.1413 23.4679 83.7515 23.1056 84.5141 22.8388C85.8105 22.3812 87.3168 22.0572 89.0325 21.8664C90.7485 21.6375 92.5788 21.5232 94.5235 21.5232C99.7856 21.5232 103.751 22.6291 106.42 24.8406C109.09 27.0524 110.424 30.0455 110.424 33.8205C110.424 36.1848 109.814 38.2056 108.594 39.8834C107.374 41.5612 105.925 42.8578 104.247 43.773C105.62 45.6413 106.973 47.3955 108.308 49.0351C109.643 50.6747 110.691 52.1618 111.454 53.4963C111.073 54.8309 110.367 55.8606 109.338 56.5851C108.346 57.2713 107.221 57.6146 105.963 57.6146C105.124 57.6146 104.4 57.5192 103.789 57.3285C103.179 57.138 102.645 56.8709 102.188 56.5279C101.73 56.1847 101.311 55.7653 100.93 55.2695C100.548 54.7737 100.186 54.24 99.8427 53.6681L95.0383 45.9463H92.0069ZM95.6102 38.3392C97.0593 38.3392 98.2031 37.977 99.0422 37.2525C99.8809 36.4899 100.3 35.384 100.3 33.9351C100.3 32.486 99.8238 31.3993 98.8704 30.6748C97.9553 29.9122 96.4874 29.5308 94.4663 29.5308C93.8944 29.5308 93.4368 29.55 93.0936 29.5879C92.7503 29.6261 92.3691 29.6833 91.9498 29.7597V38.3392H95.6102Z" fill="#FADE3F"/>
<path d="M78.3584 25.7555C78.3584 24.3273 78.7433 22.6392 80.0707 21.3115L80.4302 20.9751C81.166 20.3318 81.9986 19.8584 82.8603 19.5125L83.2932 19.3493C84.7081 18.8511 86.2543 18.5037 87.9078 18.2809L88.6238 18.1929C90.4963 17.9473 92.4641 17.8278 94.5234 17.8278C100.219 17.8278 105.18 19.0118 108.779 21.9945C112.378 24.9764 114.12 29.0567 114.12 33.8207C114.12 36.8526 113.325 39.6621 111.583 42.0577C110.932 42.9534 110.217 43.7732 109.439 44.5134C110.023 45.2657 110.6 45.9966 111.175 46.7023C112.593 48.4447 113.771 50.1005 114.663 51.6618L115.435 53.0146L115.008 54.512C114.42 56.5703 113.257 58.3456 111.465 59.607L111.442 59.6245C109.804 60.758 107.938 61.3107 105.963 61.3107C104.86 61.3107 103.745 61.1868 102.687 60.8561C101.722 60.5545 100.802 60.1077 99.9707 59.4843C99.2214 58.9225 98.5667 58.2604 98 57.5236C97.5266 56.9083 97.0845 56.2559 96.673 55.5703V55.5689L95.7029 54.0096V59.7514L92.9798 60.4936C92.2963 60.6799 91.4161 60.8184 90.482 60.9354C89.4483 61.0702 88.4114 61.139 87.3735 61.139C86.2903 61.139 85.232 61.0461 84.2276 60.8228V60.8213C83.1496 60.6102 82.093 60.19 81.1522 59.4843L81.0901 59.4382L81.0295 59.3892C80.012 58.5568 79.3487 57.4931 78.9375 56.3961C78.4939 55.2133 78.3584 53.9231 78.3584 52.6957V25.7555ZM96.6038 33.9348C96.6038 33.7456 96.5843 33.63 96.5705 33.5694L96.5678 33.5667L96.5185 33.5263C96.4951 33.5122 96.3899 33.4563 96.1534 33.3947C96.0159 33.359 95.8478 33.3269 95.6465 33.2996V34.6423C96.0472 34.6393 96.2982 34.5888 96.4392 34.5439C96.4813 34.5306 96.5129 34.5139 96.5387 34.5023C96.5629 34.422 96.6038 34.2465 96.6038 33.9348ZM100.3 33.9348C100.3 35.3837 99.8813 36.4901 99.0425 37.2527C98.2035 37.9772 97.0594 38.3399 95.6105 38.3399H91.9504V29.7592C92.16 29.7212 92.3604 29.6882 92.5511 29.6596L93.0939 29.5874C93.4372 29.5495 93.8953 29.5312 94.4669 29.5312L95.199 29.5485C96.846 29.632 98.0699 30.0075 98.8705 30.6746C99.8239 31.399 100.3 32.4859 100.3 33.9348ZM82.0545 52.6957L82.0605 53.0579C82.0853 53.8839 82.1979 54.5642 82.3983 55.0982C82.6269 55.7078 82.9507 56.1844 83.3699 56.5274C83.8274 56.8706 84.3806 57.1003 85.0287 57.2146C85.7149 57.3671 86.4968 57.4428 87.3735 57.4428C88.2505 57.4428 89.1287 57.3854 90.0057 57.2711C90.9201 57.1567 91.5874 57.0431 92.0068 56.9288V45.9458H95.0388L99.8424 53.6673C100.185 54.2392 100.548 54.7742 100.93 55.27C101.311 55.7655 101.731 56.1844 102.188 56.5274C102.646 56.8706 103.179 57.1382 103.79 57.3287C104.247 57.4716 104.769 57.5616 105.355 57.5973L105.963 57.6146C107.064 57.6146 108.063 57.3519 108.96 56.8263L109.338 56.5853C110.239 55.9513 110.891 55.0832 111.296 53.982L111.453 53.4968C110.786 52.3293 109.9 51.0445 108.795 49.6434L108.309 49.0355C106.974 47.3959 105.62 45.6413 104.247 43.773C105.715 42.9721 107.008 41.8798 108.125 40.4955L108.595 39.8832C109.738 38.3103 110.345 36.4356 110.417 34.2596L110.424 33.8207C110.424 30.0457 109.089 27.0519 106.42 24.8403C103.918 22.767 100.276 21.6663 95.495 21.5367L94.5234 21.5239C92.5787 21.5239 90.7484 21.6373 89.0326 21.8659C87.3169 22.0566 85.8111 22.3817 84.5149 22.839L84.2348 22.943C83.6012 23.1973 83.0843 23.5248 82.6841 23.9249C82.2647 24.3443 82.0545 24.9549 82.0545 25.7555V52.6957Z" fill="#0D2746"/>
<path d="M73.0225 45.3669C73.0225 47.4262 72.6602 49.3137 71.9358 51.0294C71.2495 52.7072 70.239 54.1564 68.9045 55.3766C67.5697 56.5586 65.9493 57.4738 64.0425 58.1218C62.1361 58.7702 59.9817 59.0944 57.5792 59.0944C55.177 59.0944 53.0226 58.7702 51.1161 58.1218C49.2094 57.4738 47.5888 56.5586 46.2542 55.3766C44.9197 54.1564 43.8902 52.7072 43.1657 51.0294C42.4792 49.3137 42.1362 47.4262 42.1362 45.3669V23.5178C42.5556 23.4414 43.2229 23.3461 44.1381 23.2317C45.0532 23.0792 45.9302 23.0031 46.769 23.0031C47.6462 23.0031 48.4088 23.0792 49.0569 23.2317C49.7434 23.3461 50.3153 23.575 50.7729 23.918C51.2305 24.2612 51.5737 24.738 51.8024 25.3481C52.0313 25.9582 52.1456 26.7588 52.1456 27.7504V45.1954C52.1456 47.0258 52.6414 48.4557 53.6327 49.4852C54.6622 50.5147 55.9778 51.0294 57.5792 51.0294C59.2191 51.0294 60.5344 50.5147 61.526 49.4852C62.5173 48.4557 63.013 47.0258 63.013 45.1954V23.5178C63.4324 23.4414 64.0997 23.3461 65.0149 23.2317C65.93 23.0792 66.8073 23.0031 67.646 23.0031C68.523 23.0031 69.2857 23.0792 69.934 23.2317C70.6202 23.3461 71.1924 23.575 71.6497 23.918C72.1073 24.2612 72.4505 24.738 72.6795 25.3481C72.9081 25.9582 73.0225 26.7588 73.0225 27.7504V45.3669Z" fill="#FADE3F"/>
<path d="M59.3175 45.1949V20.4322L62.3523 19.8808C62.872 19.7862 63.6119 19.6824 64.518 19.5688C65.5753 19.3981 66.6198 19.3062 67.6466 19.3062C68.6966 19.3062 69.729 19.3951 70.7033 19.6164C71.6523 19.7923 72.6054 20.1247 73.4782 20.6893L73.868 20.9605L74.2622 21.2811C75.018 21.9464 75.5751 22.7492 75.9617 23.6129L76.1406 24.0505L76.2922 24.498C76.6152 25.5541 76.7182 26.6768 76.7182 27.7509V45.3667C76.7182 47.8675 76.2766 50.2508 75.3408 52.4675C74.4483 54.6334 73.1278 56.5236 71.3992 58.1041L71.3775 58.1243L71.3544 58.143C69.6078 59.69 67.5439 60.8353 65.2328 61.6211C62.8771 62.4219 60.3103 62.7906 57.5791 62.7906C54.8484 62.7906 52.2823 62.4219 49.9268 61.6211C47.6155 60.8353 45.5503 59.6902 43.8038 58.143L43.7821 58.1243L43.7604 58.1041C42.036 56.5276 40.702 54.647 39.7725 52.4948L39.7523 52.4487L39.7336 52.4024C38.8537 50.2027 38.4399 47.8424 38.4399 45.3667V20.4322L41.475 19.8808C41.9974 19.7857 42.7423 19.6817 43.655 19.5673C44.7076 19.3981 45.747 19.3062 46.7693 19.3062C47.8193 19.3062 48.8515 19.3951 49.8258 19.6164C50.9181 19.8189 52.0156 20.2295 52.9907 20.9605C53.9507 21.6806 54.6332 22.6053 55.0842 23.6129L55.2633 24.0505L55.4149 24.498C55.7379 25.5541 55.8421 26.6765 55.8421 27.7509V45.1949C55.8421 46.2905 56.1097 46.7148 56.2709 46.8944C56.5316 47.1463 56.8721 47.3333 57.5791 47.3333V51.0294C56.0779 51.0292 54.8282 50.5768 53.8295 49.6722L53.6331 49.4844C52.7039 48.5195 52.2101 47.2029 52.1519 45.5342L52.146 45.1949V27.7509C52.146 26.7596 52.0312 25.9585 51.8025 25.3484C51.5736 24.7383 51.2306 24.2607 50.773 23.9175C50.3157 23.5747 49.7437 23.3463 49.0577 23.2317C48.5716 23.1174 48.0206 23.0452 47.406 23.0166L46.7693 23.0023C45.9306 23.0023 45.0536 23.0792 44.1387 23.2317C43.2235 23.346 42.5555 23.4414 42.1361 23.5175V45.3667C42.1361 47.4257 42.4793 49.3134 43.1656 51.0294C43.89 52.707 44.9193 54.1566 46.2538 55.3766C47.5884 56.5589 49.21 57.473 51.1165 58.1213C52.7847 58.6886 54.6421 59.0077 56.6898 59.0786L57.5791 59.0944C59.6814 59.0944 61.5941 58.8458 63.3167 58.3495L64.0429 58.1213C65.7111 57.5541 67.16 56.7828 68.3903 55.8068L68.9043 55.3766C70.2389 54.1564 71.2499 52.7072 71.9364 51.0294C72.6608 49.3134 73.0221 47.4257 73.0221 45.3667V27.7509C73.0221 26.7598 72.9085 25.9585 72.6798 25.3484C72.4511 24.7383 72.1079 24.2607 71.6503 23.9175C71.193 23.5745 70.6201 23.346 69.9338 23.2317C69.4474 23.1174 68.8969 23.0452 68.2821 23.0166L67.6466 23.0023C66.8079 23.0023 65.9299 23.0792 65.0147 23.2317C64.1001 23.346 63.433 23.4414 63.0136 23.5175V45.1949L63.0077 45.5342C62.9496 47.2027 62.4555 48.5195 61.5266 49.4844L61.3358 49.6722C60.3684 50.577 59.1162 51.0294 57.5791 51.0294V47.3333C58.3757 47.3333 58.6739 47.1192 58.8641 46.9218C59.0208 46.7589 59.3175 46.3486 59.3175 45.1949Z" fill="#0D2746"/>
<path d="M23.0853 29.5892C20.1491 29.5892 17.8994 30.4851 16.3359 32.2772C14.7727 34.0696 13.9908 36.6052 13.9908 39.8846C13.9908 43.2021 14.8488 45.7568 16.5648 47.549C18.3187 49.3411 20.6638 50.2373 23.6 50.2373C25.1635 50.2373 26.4788 50.0276 27.5465 49.608C28.6524 49.1886 29.7011 48.712 30.6924 48.1781C31.3408 48.712 31.8365 49.3601 32.1795 50.1227C32.561 50.8474 32.7517 51.7054 32.7517 52.6967C32.7517 54.2602 31.8745 55.5947 30.1205 56.7004C28.4045 57.7681 25.7736 58.302 22.2273 58.302C19.6725 58.302 17.2703 57.9398 15.0206 57.2154C12.7708 56.4907 10.8069 55.385 9.12914 53.898C7.45134 52.3727 6.11678 50.466 5.12547 48.1781C4.17212 45.8522 3.69531 43.0875 3.69531 39.8846C3.69531 36.9102 4.1529 34.2983 5.06806 32.0486C6.02142 29.7607 7.29881 27.835 8.90047 26.2717C10.5401 24.7083 12.4466 23.5262 14.6201 22.7254C16.7935 21.9246 19.1196 21.5242 21.5982 21.5242C25.1063 21.5242 27.8136 22.0963 29.7201 23.2402C31.6648 24.3842 32.6371 25.8521 32.6371 27.6442C32.6371 28.6358 32.3892 29.4938 31.8937 30.2182C31.3979 30.9427 30.826 31.5146 30.1777 31.9342C29.1864 31.2859 28.1187 30.733 26.9746 30.2754C25.8687 29.8178 24.5724 29.5892 23.0853 29.5892Z" fill="#FADE3F"/>
<path d="M13.9904 39.8846C13.9904 36.8104 14.6784 34.3897 16.0524 32.6224L16.3367 32.2772C17.8999 30.4853 20.1492 29.5889 23.0851 29.5889C24.572 29.5889 25.8688 29.8173 26.9747 30.2747C27.9759 30.6751 28.9189 31.1489 29.803 31.6955L30.1785 31.9337C30.7455 31.5666 31.2544 31.0831 31.7046 30.4826L31.8938 30.2185C32.3275 29.5845 32.5717 28.8479 32.6256 28.0094L32.6372 27.644C32.6372 25.964 31.7824 24.5688 30.0731 23.4585L29.7207 23.2404C27.8142 22.0966 25.1059 21.5239 21.5981 21.5239C19.1194 21.5239 16.7933 21.9243 14.62 22.7252C12.4469 23.5257 10.5407 24.708 8.90106 26.271L8.60364 26.5684C7.14021 28.0767 5.96164 29.9043 5.06791 32.049L4.90183 32.4751C4.09755 34.6265 3.69615 37.0965 3.69615 39.8846L3.70058 40.4795C3.75627 43.4312 4.23184 45.9973 5.12557 48.178C6.11687 50.4657 7.45143 52.3729 9.12923 53.8982C10.8068 55.3853 12.7707 56.4902 15.0199 57.2146C16.9882 57.8486 19.0741 58.2052 21.276 58.2845L22.2274 58.3018C25.5524 58.3018 28.0727 57.8329 29.7887 56.8943L30.1206 56.7006C31.7652 55.664 32.6385 54.426 32.7412 52.9872L32.7513 52.6969C32.7513 51.7056 32.5608 50.8472 32.1796 50.1227C31.8364 49.3601 31.3406 48.7118 30.6925 48.178C29.701 48.7118 28.6523 49.1893 27.5464 49.6087C26.4789 50.0281 25.1636 50.2368 23.6004 50.2368V46.5406C24.8578 46.5406 25.6833 46.3691 26.1951 46.1681L26.2153 46.1595L26.2355 46.1523C27.1972 45.7874 28.0979 45.3769 28.9396 44.9235L31.1257 43.7469L33.0416 45.3249C34.1263 46.2183 34.9737 47.324 35.551 48.6068H35.5481C36.1863 49.9064 36.4474 51.3037 36.4474 52.6969C36.4474 55.9333 34.5262 58.2917 32.0914 59.8266L32.0828 59.8322L32.0727 59.8381C29.4778 61.4529 26.009 61.9979 22.2274 61.9979C19.3193 61.9979 16.5321 61.5847 13.8879 60.7334C11.1784 59.8606 8.75888 58.5078 6.67771 56.6632L6.66021 56.6486L6.64296 56.6328C4.53985 54.721 2.91306 52.3685 1.73399 49.6476L1.71969 49.6146L1.70515 49.5799C0.52707 46.7055 0 43.442 0 39.8846C0 36.5372 0.51401 33.4351 1.64454 30.6558L1.65612 30.627C2.78 27.9293 4.32425 25.5741 6.31819 23.6275L6.33396 23.6115L6.34998 23.5972C8.36339 21.6772 10.7058 20.2285 13.3423 19.2569C15.9526 18.2952 18.7141 17.8278 21.5981 17.8278C25.4103 17.8278 28.8753 18.4334 31.5934 20.0541C34.3286 21.6629 36.3334 24.192 36.3334 27.644C36.3334 29.2804 35.9137 30.888 34.9446 32.3048C34.2098 33.3784 33.2976 34.3182 32.1853 35.0378L30.167 36.343L28.1558 35.0276C27.3774 34.5188 26.5272 34.077 25.6017 33.7066L25.5815 33.6995L25.5613 33.6909C24.9978 33.4578 24.2009 33.285 23.0851 33.285C20.9453 33.285 19.8224 33.904 19.1219 34.7073C18.3356 35.6087 17.6866 37.1601 17.6866 39.8846C17.6868 42.5609 18.3664 44.0736 19.2185 44.9742C20.1578 45.9278 21.483 46.5406 23.6004 46.5406V50.2368L23.0563 50.2267C20.3729 50.1217 18.2092 49.2285 16.5649 47.5485C14.9566 45.8684 14.1013 43.5184 14.0008 40.4984L13.9904 39.8846Z" fill="#0D2746"/>
<mask id="mask0_2719_102" style="mask-type:luminance" maskUnits="userSpaceOnUse" x="116" y="18" width="36" height="46">
<path d="M141.954 18.7139C143.872 18.7139 145.427 20.2692 145.427 22.1877C145.427 23.7002 144.461 24.9865 143.111 25.4635V34.7017C148.436 40.6029 153.625 48.5861 150.172 54.755C143.859 66.0317 124.193 66.0317 117.88 54.755C114.357 48.4609 120.085 40.2784 125.742 34.3454V25.4635C124.393 24.9865 123.426 23.7002 123.426 22.1877C123.426 20.2692 124.982 18.7139 126.9 18.7139H141.954Z" fill="white"/>
</mask>
<g mask="url(#mask0_2719_102)">
<path d="M143.111 25.4635L141.879 21.9785L139.415 22.8498V25.4635H143.111ZM143.111 34.7016H139.415V36.1227L140.367 37.1776L143.111 34.7016ZM125.742 34.3453L128.417 36.8957L129.438 35.8248V34.3453H125.742ZM125.742 25.4635H129.438V22.8498L126.974 21.9785L125.742 25.4635ZM141.953 18.7138L141.953 22.41C141.831 22.41 141.731 22.3104 141.731 22.1877H145.427H149.123C149.123 18.2279 145.913 15.0177 141.953 15.0177V18.7138ZM145.427 22.1877H141.731C141.731 22.1439 141.748 22.0929 141.775 22.0552C141.798 22.0236 141.831 21.9955 141.879 21.9785L143.111 25.4635L144.343 28.9482C147.122 27.9658 149.123 25.3159 149.123 22.1877H145.427ZM143.111 25.4635H139.415V34.7016H143.111H146.808V25.4635H143.111ZM143.111 34.7016L140.367 37.1776C142.919 40.0056 145.246 43.1328 146.546 46.1077C147.852 49.0967 147.87 51.2993 146.946 52.9495L150.172 54.755L153.397 56.5604C155.927 52.0415 155.077 47.1682 153.32 43.1481C151.558 39.1141 148.628 35.2989 145.856 32.2257L143.111 34.7016ZM150.172 54.755L146.946 52.9495C144.623 57.1008 139.594 59.5163 134.026 59.5163C128.458 59.5163 123.429 57.1008 121.105 52.9495L117.88 54.755L114.655 56.5604C118.644 63.6858 126.605 66.9086 134.026 66.9086C141.447 66.9086 149.408 63.6858 153.397 56.5604L150.172 54.755ZM117.88 54.755L121.105 52.9495C120.19 51.3138 120.24 49.0878 121.707 46.0015C123.159 42.9458 125.697 39.7491 128.417 36.8957L125.742 34.3453L123.067 31.7948C120.131 34.8744 116.976 38.7356 115.031 42.8282C113.1 46.8898 112.047 51.902 114.655 56.5604L117.88 54.755ZM125.742 34.3453H129.438V25.4635H125.742H122.046V34.3453H125.742ZM125.742 25.4635L126.974 21.9785C127.022 21.9955 127.056 22.0236 127.078 22.0552C127.106 22.0929 127.122 22.1436 127.122 22.1877H123.426H119.73C119.73 25.3159 121.731 27.9658 124.51 28.9482L125.742 25.4635ZM123.426 22.1877H127.122C127.122 22.3107 127.023 22.41 126.9 22.41V18.7138V15.0177C122.941 15.0179 119.73 18.2277 119.73 22.1877H123.426ZM126.9 18.7138V22.41H141.953L141.953 18.7138V15.0177H126.9V18.7138Z" fill="#0D2746"/>
</g>
<path d="M134.338 37.0537C129.903 37.0537 117.008 46.1945 122.51 54.0557C127.887 61.7366 140.252 60.709 145.426 54.0557C151.317 46.4813 138.773 37.0537 134.338 37.0537Z" fill="#FADE3F"/>
<path d="M136.928 36.7254C137.513 36.7254 137.988 36.2511 137.988 35.6659C137.988 35.0808 137.513 34.6064 136.928 34.6064C136.343 34.6064 135.869 35.0808 135.869 35.6659C135.869 36.2511 136.343 36.7254 136.928 36.7254Z" fill="#FADE3F"/>
<path d="M132.16 33.5469C133.038 33.5469 133.75 32.8353 133.75 31.9576C133.75 31.0799 133.038 30.3684 132.16 30.3684C131.283 30.3684 130.571 31.0799 130.571 31.9576C130.571 32.8353 131.283 33.5469 132.16 33.5469Z" fill="#FADE3F"/>
<path d="M138.517 15.5353C139.395 15.5353 140.107 14.8238 140.107 13.946C140.107 13.0683 139.395 12.3568 138.517 12.3568C137.64 12.3568 136.928 13.0683 136.928 13.946C136.928 14.8238 137.64 15.5353 138.517 15.5353Z" fill="#FADE3F"/>
<path d="M129.512 13.4164C130.682 13.4164 131.631 12.4677 131.631 11.2974C131.631 10.1272 130.682 9.17847 129.512 9.17847C128.342 9.17847 127.393 10.1272 127.393 11.2974C127.393 12.4677 128.342 13.4164 129.512 13.4164Z" fill="#FADE3F"/>
<path d="M135.869 8.11898C136.454 8.11898 136.928 7.64463 136.928 7.05949C136.928 6.47435 136.454 6 135.869 6C135.284 6 134.809 6.47435 134.809 7.05949C134.809 7.64463 135.284 8.11898 135.869 8.11898Z" fill="#FADE3F"/>
</g>
<defs>
<clipPath id="clip0_2719_102">
<rect width="194" height="69.2126" fill="white"/>
</clipPath>
</defs>
</svg>
