<svg width="94" height="84" viewBox="0 0 94 84" fill="none" xmlns="http://www.w3.org/2000/svg">
<path d="M14.724 83.3333V78.125H79.026V83.3333H14.724ZM14.4219 68.3125L6.88021 28.5156C6.7066 28.5851 6.51215 28.6233 6.29688 28.6302C6.07813 28.6406 5.88195 28.6458 5.70833 28.6458C4.07292 28.6458 2.71354 28.0903 1.63021 26.9792C0.546875 25.8681 0.00347222 24.5208 0 22.9375C0 21.2951 0.543403 19.8993 1.63021 18.75C2.71354 17.6042 4.07465 17.0312 5.71354 17.0312C7.35243 17.0312 8.74653 17.6042 9.89583 18.75C11.0417 19.8993 11.6146 21.2951 11.6146 22.9375C11.6146 23.2986 11.6007 23.6337 11.5729 23.9427C11.5451 24.2517 11.4427 24.5573 11.2656 24.8594L27.9427 31.5521L43.4167 10.4844C42.6632 9.99132 42.066 9.33854 41.625 8.52604C41.184 7.71701 40.9635 6.84375 40.9635 5.90625C40.9635 4.26736 41.5382 2.87326 42.6875 1.72396C43.8333 0.574653 45.2274 0 46.8698 0C48.5087 0 49.9045 0.572916 51.0573 1.71875C52.2101 2.86458 52.7865 4.25347 52.7865 5.88542C52.7865 6.87153 52.566 7.76042 52.125 8.55208C51.684 9.3507 51.0868 9.99479 50.3333 10.4844L65.8021 31.5521L82.4844 24.8594C82.3906 24.5816 82.309 24.2778 82.2396 23.9479C82.1701 23.6146 82.1354 23.2778 82.1354 22.9375C82.1354 21.2951 82.6771 19.8993 83.7604 18.75C84.8438 17.6042 86.2049 17.0312 87.8438 17.0312C89.4826 17.0312 90.8767 17.6042 92.026 18.75C93.1754 19.8993 93.75 21.2951 93.75 22.9375C93.75 24.5139 93.1736 25.8594 92.0208 26.974C90.8681 28.0885 89.4688 28.6458 87.8229 28.6458C87.691 28.6458 87.5417 28.625 87.375 28.5833C87.2083 28.5417 87.0278 28.5191 86.8333 28.5156L79.3281 68.3073L14.4219 68.3125ZM18.8698 63.1042H74.8802L81.2708 31.1406L63.9948 38.0312L46.875 14.6042L29.7604 38.0312L12.4792 31.1406L18.8698 63.1042Z" fill="black"/>
</svg>
