<svg width="120" height="120" viewBox="0 0 120 120" fill="none" xmlns="http://www.w3.org/2000/svg">
<path d="M60 32.5V92.5" stroke="#222222" stroke-width="5" stroke-linecap="round"/>
<path d="M102.5 32.5V92.5" stroke="#222222" stroke-width="5" stroke-linecap="round"/>
<path d="M17.5 32.5V92.5" stroke="#222222" stroke-width="5" stroke-linecap="round"/>
<path d="M102.5 92.5C102.5 92.5 97.5 82.5 80 82.5C62.5 82.5 60 92.5 60 92.5" stroke="#222222" stroke-width="5" stroke-linecap="round"/>
<path d="M17.5 92.5C17.5 92.5 22.5 82.5 40 82.5C57.5 82.5 60 92.5 60 92.5" stroke="#222222" stroke-width="5" stroke-linecap="round"/>
<path d="M102.5 32.5C102.5 32.5 97.5 22.5 80 22.5C62.5 22.5 60 32.5 60 32.5" stroke="#222222" stroke-width="5" stroke-linecap="round"/>
<path d="M17.5 32.5C17.5 32.5 22.5 22.5 40 22.5C57.5 22.5 60 32.5 60 32.5" stroke="#222222" stroke-width="5" stroke-linecap="round"/>
</svg>